<svg width="31" height="32" viewBox="0 0 31 32" fill="none" xmlns="http://www.w3.org/2000/svg">
    <path fill-rule="evenodd" clip-rule="evenodd" d="M0.224989 1.64529C0 2.08686 0 2.6649 0 3.82098V12.9036H6.19272V19.0964H0V28.179C0 29.3351 0 29.9131 0.224989 30.3547C0.422895 30.7431 0.738683 31.0589 1.1271 31.2568C1.56866 31.4818 2.1467 31.4818 3.30279 31.4818H12.3854V25.2891H6.19272V19.0964H12.3854V12.9036H6.19272V6.71092H12.3854V0.518196H3.30279C2.1467 0.518196 1.56866 0.518196 1.1271 0.743185C0.738683 0.941091 0.422895 1.25688 0.224989 1.64529ZM30.9636 3.82098C30.9636 2.6649 30.9636 2.08686 30.7386 1.64529C30.5407 1.25688 30.2249 0.941091 29.8365 0.743185C29.395 0.518196 28.8169 0.518196 27.6608 0.518196H18.5782V6.71092H24.7709V12.9036H18.5782V19.0964H24.7709V25.2891H18.5782V31.4818H27.6608C28.8169 31.4818 29.395 31.4818 29.8365 31.2568C30.2249 31.0589 30.5407 30.7431 30.7386 30.3547C30.9636 29.9131 30.9636 29.3351 30.9636 28.179V19.0964H24.7709V12.9036H30.9636V3.82098Z" fill="white"/>
</svg>
